<svg xmlns="http://www.w3.org/2000/svg" width="16.084" height="20" viewBox="0 0 16.084 20">
    <path data-name="Union 1" d="M-9339.476 448.508v-.5h-4.779a.685.685 0 0 1-.689-.68.684.684 0 0 1 .689-.68h.6v-6.3a6.593 6.593 0 0 1 4.791-6.3 2.034 2.034 0 0 1-.242-.966 2.1 2.1 0 0 1 2.114-2.084 2.1 2.1 0 0 1 2.113 2.084 2.055 2.055 0 0 1-.24.966 6.6 6.6 0 0 1 4.79 6.3v6.3h.781a.684.684 0 0 1 .689.68.684.684 0 0 1-.689.68h-4.871v.5a2.513 2.513 0 0 1-2.527 2.492 2.513 2.513 0 0 1-2.53-2.492zm1.379 0a1.142 1.142 0 0 0 1.148 1.132 1.141 1.141 0 0 0 1.148-1.132v-.5h-2.3zm6.388-1.857v-6.3a5.249 5.249 0 0 0-5.021-5.2 2.158 2.158 0 0 1-.265.016 2.13 2.13 0 0 1-.264-.016 5.25 5.25 0 0 0-5.021 5.2v6.3zm-5.115-12.863a.74.74 0 0 0 .565-.7.74.74 0 0 0-.735-.725.74.74 0 0 0-.735.725.739.739 0 0 0 .564.7h.171z" transform="translate(9344.944 -431)" style="fill: #fff" />
</svg>