<svg xmlns="http://www.w3.org/2000/svg" width="12.998" height="12.999" viewBox="0 0 12.998 12.999">
    <path data-name="Union 15" d="M7.367 13a.433.433 0 1 1 0-.866h5.2a.433.433 0 1 1 0 .866zM.16 12.831a.568.568 0 0 1-.16-.408l.014-2.674a.614.614 0 0 1 .171-.393L7.547 2.02 9.383.166a.588.588 0 0 1 .816 0l2.64 2.66a.59.59 0 0 1 0 .809L3.63 12.82a.539.539 0 0 1-.4.165L.56 13H.553a.548.548 0 0 1-.393-.169zM1.15 10l-.011 1.856 1.868-.014L9.8 5.079 7.944 3.223zm7.6-7.586 1.856 1.856 1.041-1.042L9.8 1.373z" transform="translate(-.002 -.001)" style="fill:#2e2e33"/>
</svg>
