<svg xmlns="http://www.w3.org/2000/svg" width="20" height="15.19" viewBox="0 0 20 15.19">
    <path data-name="note" d="M17.626 45.945H2.374A2.331 2.331 0 0 0 0 48.225v10.631a2.331 2.331 0 0 0 2.374 2.28h15.252A2.331 2.331 0 0 0 20 58.856V48.225a2.331 2.331 0 0 0-2.374-2.28zm0 13.178H2.374c-.192 0-.361-.125-.361-.267V49.63l6.9 5.824a.786.786 0 0 0 .506.185h1.165a.786.786 0 0 0 .506-.185l6.9-5.824v9.226c-.003.144-.171.267-.364.267zM10 53.641l-6.709-5.683h13.418z" transform="translate(0 -45.945)" style="fill: #fff" />
</svg>