<?xml version="1.0" standalone="no"?>
<!DOCTYPE svg PUBLIC "-//W3C//DTD SVG 1.0//EN" "http://www.w3.org/TR/2001/REC-SVG-20010904/DTD/svg10.dtd">
<svg xmlns="http://www.w3.org/2000/svg" xmlns:xlink="http://www.w3.org/1999/xlink" id="body_1" width="80" height="60">

<defs>
    <linearGradient transform="matrix(1 0 0 1 0 0)"  id="1" x1="98.67" y1="284.75" x2="593.67" y2="315.75">
        <stop stop-color="#5F1CC9" offset="0%"/>
        <stop stop-color="#3483F2" offset="100%"/>
    </linearGradient>
    <linearGradient transform="matrix(1 0 0 1 0 0)"  id="231" x1="105.64" y1="173.41" x2="600.64" y2="204.41">
        <stop stop-color="#5F1CC9" offset="0%"/>
        <stop stop-color="#3483F2" offset="100%"/>
    </linearGradient>
    <linearGradient transform="matrix(1 0 0 1 0 0)"  id="464" x1="107.7" y1="140.55" x2="602.7" y2="171.55">
        <stop stop-color="#5F1CC9" offset="0%"/>
        <stop stop-color="#3483F2" offset="100%"/>
    </linearGradient>
    <linearGradient transform="matrix(1 0 0 1 0 0)"  id="695" x1="104.6" y1="189.94" x2="599.6" y2="220.94">
        <stop stop-color="#5F1CC9" offset="0%"/>
        <stop stop-color="#3483F2" offset="100%"/>
    </linearGradient>
    <linearGradient transform="matrix(1 0 0 1 0 0)"  id="926" x1="247.04" y1="480.83" x2="742.04" y2="511.83">
        <stop stop-color="#5F1CC9" offset="0%"/>
        <stop stop-color="#3483F2" offset="100%"/>
    </linearGradient>
    <linearGradient transform="matrix(1 0 0 1 0 0)"  id="1159" x1="248.37" y1="459.51" x2="743.37" y2="490.51">
        <stop stop-color="#5F1CC9" offset="0%"/>
        <stop stop-color="#3483F2" offset="100%"/>
    </linearGradient>
    <linearGradient transform="matrix(1 0 0 1 0 0)"  id="1393" x1="252.6" y1="391.97" x2="747.6" y2="422.97">
        <stop stop-color="#5F1CC9" offset="0%"/>
        <stop stop-color="#3483F2" offset="100%"/>
    </linearGradient>
</defs>

<g transform="matrix(0.8000001 0 0 0.8000001 0 0)">
	<g transform="matrix(0.13878095 0 0 0.13878095 -0 3.9823184)">
        <path d="M0 233.97C 0 231.24171 2.2117133 229.03 4.94 229.03L4.94 229.03L100.77 229.03C 103.49828 229.03 105.71 231.24171 105.71 233.97L105.71 233.97L105.71 329.8C 105.71 332.5283 103.49828 334.74 100.77 334.74L100.77 334.74L4.94 334.74C 2.2117133 334.74 0 332.5283 0 329.8L0 329.8L0 233.97z" stroke="none" fill="url(#1)" />
        <path d="M105.71 137.07C 105.71 134.34172 107.921715 132.13 110.65 132.13L110.65 132.13L188.86 132.13C 191.58829 132.13 193.79999 134.34172 193.79999 137.07L193.79999 137.07L193.79999 215.28C 193.79999 218.00829 191.58829 220.22 188.86 220.22L188.86 220.22L110.65 220.22C 107.921715 220.22 105.71 218.00829 105.71 215.28L105.71 215.28L105.71 137.07z" stroke="none" fill="url(#231)" />
        <path d="M632.47 137.07C 632.47 134.34172 634.6817 132.13 637.41 132.13L637.41 132.13L715.62 132.13C 718.34827 132.13 720.55994 134.34172 720.55994 137.07L720.55994 137.07L720.55994 215.28C 720.55994 218.00829 718.34827 220.22 715.62 220.22L715.62 220.22L637.41 220.22C 634.6817 220.22 632.47 218.00829 632.47 215.28L632.47 215.28L632.47 137.07z" stroke="none" fill="url(#464)" />
        <path d="M403.45 93.03C 403.45 90.30171 405.6617 88.09 408.39 88.09L408.39 88.09L486.6 88.09C 489.3283 88.09 491.54 90.30171 491.54 93.03L491.54 93.03L491.54 329.8C 491.54 332.5283 489.3283 334.74 486.6 334.74L486.6 334.74L408.39 334.74C 405.6617 334.74 403.45 332.5283 403.45 329.8L403.45 329.8L403.45 93.03z" stroke="none" fill="url(#695)" />
        <path transform="matrix(1 0 0 1 -145.52 -241.61)"  d="M448.9 576.35L282.59 576.35C 279.87912 576.3122 277.69226 574.1209 277.66 571.41L277.66 571.41L277.66 493.2C 277.69226 490.48907 279.87912 488.29776 282.59 488.26L282.59 488.26L360.59 488.26C 363.42807 488.25452 365.729 485.95807 365.74 483.12L365.74 483.12L365.74 405.12C 365.77225 402.40906 367.9591 400.21774 370.66998 400.18L370.66998 400.18L448.9 400.18C 451.61087 400.21774 453.79773 402.40906 453.83 405.12L453.83 405.12L453.83 571.42C 453.79236 574.127 451.60703 576.3123 448.9 576.35z" stroke="none" fill="url(#926)" />
        <path transform="matrix(1 0 0 1 -145.52 -241.61)"  d="M746.63 576.35L668.42 576.35C 665.7052 576.3176 663.5123 574.12476 663.48 571.41L663.48 571.41L663.48 405.11C 663.5123 402.3952 665.7052 400.20236 668.42 400.16998L668.42 400.16998L746.63 400.16998C 749.3447 400.20236 751.5376 402.3952 751.57 405.11L751.57 405.11L751.57 483.11C 751.5755 485.95038 753.87964 488.25003 756.72003 488.25L756.72003 488.25L834.72003 488.25C 837.4348 488.28238 839.6277 490.47522 839.66003 493.19L839.66003 493.19L839.66003 571.4C 839.6277 574.11475 837.4348 576.3076 834.72003 576.34L834.72003 576.34L746.63 576.35z" stroke="none" fill="url(#1159)" />
        <path d="M105.71 137.07C 105.71 134.34172 107.921715 132.13 110.65 132.13L110.65 132.13L188.86 132.13C 191.58829 132.13 193.79999 134.34172 193.79999 137.07L193.79999 137.07L193.79999 215.28C 193.79999 218.00829 191.58829 220.22 188.86 220.22L188.86 220.22L110.65 220.22C 107.921715 220.22 105.71 218.00829 105.71 215.28L105.71 215.28L105.71 137.07z" stroke="none" fill="none" />
        <path transform="matrix(1 0 0 1 -145.52 -241.61)"  d="M563.41 241.61L485.2 241.61C 482.48523 241.6424 480.2924 243.83525 480.26 246.55L480.26 246.55L480.26 306.61002L480.26 334.61002L480.26 571.41C 480.2924 574.12476 482.48523 576.3176 485.2 576.35L485.2 576.35L526.41003 576.35C 529.12085 576.3122 531.30774 574.1209 531.34 571.41L531.34 571.41L531.34 570.45996C 531.341 570.4433 531.341 570.4266 531.34 570.41L531.34 570.41L531.34 319.13C 531.34 319.13 531.34 315.61002 533.10004 313.85C 534.86005 312.09 538.39 312.08002 538.39 312.08002L538.39 312.08002L562.39 312.08002C 563.966 312.08325 565.478 311.45685 566.59 310.34003C 567.68506 309.40906 568.32025 308.0473 568.33 306.61002L568.33 306.61002L568.33 246.55C 568.2979 243.84288 566.11694 241.65309 563.41 241.61z" stroke="none" fill="url(#1393)" />
        <path transform="matrix(1 0 0 1 -145.52 -241.61)"  d="M222 661.63C 222 676.74335 216.01666 686.50336 204.05 690.91003L204.05 690.91003L228 724.65L202.06 724.65L181.15 694.55005L166.57 694.55005L166.57 724.65L145.57 724.65L145.57 630.32L181.33 630.32C 195.99667 630.32 206.45668 632.79333 212.71 637.74C 218.96335 642.68665 222.06001 650.65 222 661.63zM196.63 672.83C 199.24335 670.49 200.54669 666.7767 200.54001 661.69C 200.53336 656.60333 199.18335 653.12 196.49 651.24C 193.82335 649.3467 189.1 648.4 182.32 648.39996L182.32 648.39996L166.57 648.39996L166.57 676.33997L182 676.33997C 189.16667 676.34 194.05667 675.17004 196.67 672.83z" stroke="none" fill="#1A1A18" fill-rule="nonzero" />
        <path transform="matrix(1 0 0 1 -145.52 -241.61)"  d="M311.64 630.32L311.64 649.08L264.64 649.08L264.64 668.51L306.88 668.51L306.88 686.51L264.68 686.51L264.68 706L313.13 706L313.13 724.63L243.63 724.63L243.63 630.32L311.64 630.32z" stroke="none" fill="#1A1A18" fill-rule="nonzero" />
        <path transform="matrix(1 0 0 1 -145.52 -241.61)"  d="M399.09 724.65L390.31 704.27L350.77 704.27L342 724.65L319.6 724.65L360.36002 630.32L380.73 630.32L421.49002 724.65L399.09 724.65zM370.61 658.39L358.74 685.78L382.34998 685.78z" stroke="none" fill="#1A1A18" fill-rule="nonzero" />
        <path transform="matrix(1 0 0 1 -145.52 -241.61)"  d="M432.42 724.65L432.42 630.32L453.47 630.32L453.47 705.89L493.68 705.89L493.68 724.65L432.42 724.65z" stroke="none" fill="#1A1A18" fill-rule="nonzero" />
        <path transform="matrix(1 0 0 1 -145.52 -241.61)"  d="M540.64 648.54L540.64 724.64996L519.64 724.64996L519.64 648.54L492.87 648.54L492.87 630.32L567.37 630.32L567.37 648.54L540.64 648.54z" stroke="none" fill="#1A1A18" fill-rule="nonzero" />
        <path transform="matrix(1 0 0 1 -145.52 -241.61)"  d="M623.37 724.65L602.31 724.65L602.31 687.4L569.66 630.32L592.45996 630.32L612.83997 665.41003L633.22 630.32L656 630.32L623.37 687.4L623.37 724.65z" stroke="none" fill="#1A1A18" fill-rule="nonzero" />
        <path transform="matrix(1 0 0 1 -145.52 -241.61)"  d="M732.13 630.32L753.19 630.32L753.19 724.65L732.13 724.65L687.2 665.54L687.2 724.64996L666.14 724.64996L666.14 630.32L685.85004 630.32L732.13 691.05L732.13 630.32z" stroke="none" fill="#1A1A18" fill-rule="nonzero" />
        <path transform="matrix(1 0 0 1 -145.52 -241.61)"  d="M843.6 724.65L834.82996 704.27L795.29 704.27L786.51996 724.65L764.11 724.65L804.87 630.32L825.25 630.32L866 724.65L843.6 724.65zM815.13 658.39L803.25 685.78L826.87 685.78z" stroke="none" fill="#1A1A18" fill-rule="nonzero" />
	</g>
</g>
</svg>