<svg xmlns="http://www.w3.org/2000/svg" width="12" height="13.5" viewBox="0 0 12 13.5">
    <g data-name="Path 1726" style="fill:none;stroke-linecap:round;stroke-linejoin:round">
        <path d="M21.444 11.36a.474.474 0 0 0 .434.3h3.44a2.1 2.1 0 0 0 4.166 0h3.448a.214.214 0 0 0 .068-.009.476.476 0 0 0 .26-.816l-.024-.024a2.272 2.272 0 0 1-.418-.727 7.362 7.362 0 0 1-.442-2.737 6.041 6.041 0 0 0-1.823-4.836 4.157 4.157 0 0 0-1.468-.824 1.937 1.937 0 0 0-.39-1.146A1.566 1.566 0 0 0 27.416 0a1.585 1.585 0 0 0-1.27.541 1.911 1.911 0 0 0-.4 1.171 4.2 4.2 0 0 0-1.468.807 6.174 6.174 0 0 0-1.838 4.812 7.245 7.245 0 0 1-.45 2.713 2.981 2.981 0 0 1-.434.783.493.493 0 0 0-.112.533z" style="stroke:none" transform="translate(-21.409)"/>
        <path d="M27.4 12.5c.543 0 1.013-.423 1.094-.983a1 1 0 0 1 .99-.858h2.495a4.552 4.552 0 0 1-.087-.206c-.234-.585-.513-1.598-.513-3.106 0-2.313-.803-3.496-1.475-4.079a3.152 3.152 0 0 0-1.112-.626 1 1 0 0 1-.702-.907c-.008-.172-.044-.408-.169-.56-.095-.116-.265-.175-.505-.175-.232 0-.397.06-.503.183-.146.18-.167.445-.17.552a1 1 0 0 1-.708.933c-.226.07-.67.24-1.117.618-1.223 1.025-1.48 2.766-1.48 4.045 0 1.481-.284 2.496-.524 3.091a5.64 5.64 0 0 1-.103.237h2.507a1 1 0 0 1 .99.858c.08.56.55.983 1.093.983m0 1c-1.05 0-1.933-.8-2.083-1.84h-3.44a.474.474 0 0 1-.434-.3.493.493 0 0 1 .11-.533s.213-.242.434-.783c.205-.508.45-1.388.45-2.713 0-1.485.315-3.536 1.838-4.812a4.198 4.198 0 0 1 1.468-.807c.008-.34.094-.8.402-1.171.205-.242.592-.541 1.27-.541.687 0 1.074.29 1.279.541.3.363.378.815.394 1.146.363.114.915.348 1.468.824.828.719 1.822 2.14 1.822 4.836 0 1.365.245 2.245.442 2.738.182.46.371.678.418.726l.024.025c.134.129.182.322.118.508a.483.483 0 0 1-.378.307c-.024.008-.048.008-.071.008h-3.448c-.15 1.042-1.034 1.841-2.083 1.841z" style="fill:#2e2e33;stroke:none" transform="translate(-21.409)"/>
    </g>
</svg>
