<?xml version="1.0" encoding="utf-8"?>
<svg viewBox="0 0 512 512" style="enable-background:new 0 0 512 512;" xmlns="http://www.w3.org/2000/svg">
  <g>
    <g>
      <path d="M509.06,161.741l-63.036-63.037c-1.883-1.882-4.436-2.94-7.099-2.94s-5.216,1.058-7.099,2.942l-85.321,85.33V51.17 c0-5.544-4.496-10.039-10.039-10.039H86.568c-0.115,0-0.228,0.013-0.343,0.017c-0.111,0.004-0.222,0.009-0.333,0.017 c-0.428,0.029-0.849,0.076-1.261,0.157c-0.009,0.002-0.018,0.002-0.027,0.004c-0.445,0.088-0.874,0.212-1.296,0.357 c-0.078,0.027-0.156,0.056-0.233,0.085c-0.393,0.147-0.776,0.311-1.143,0.503c-0.029,0.015-0.059,0.027-0.088,0.042 c-0.388,0.208-0.756,0.445-1.111,0.7c-0.084,0.06-0.167,0.123-0.249,0.186c-0.349,0.267-0.688,0.549-0.999,0.859 c-0.005,0.005-0.01,0.008-0.014,0.012L2.94,120.599c-0.005,0.005-0.008,0.01-0.012,0.014c-0.31,0.312-0.593,0.651-0.86,1 c-0.062,0.081-0.124,0.162-0.184,0.245c-0.256,0.356-0.493,0.726-0.701,1.114c-0.015,0.028-0.026,0.057-0.041,0.085 c-0.193,0.368-0.357,0.752-0.504,1.144c-0.029,0.079-0.059,0.157-0.086,0.236c-0.145,0.42-0.268,0.848-0.355,1.292 c-0.003,0.014-0.004,0.029-0.007,0.043c-0.078,0.405-0.125,0.819-0.155,1.24c-0.008,0.116-0.014,0.233-0.018,0.349 C0.013,127.477,0,127.586,0,127.699V460.83c0,5.544,4.496,10.039,10.039,10.039h326.425c5.544,0,10.039-4.496,10.039-10.039 V338.486L509.06,175.938c1.882-1.882,2.94-4.436,2.94-7.099S510.942,163.623,509.06,161.741z M343.574,215.361l95.35-95.361 l17.316,17.316L267.919,325.637l-17.316-17.314L343.574,215.361z M280.043,366.156l-52.513,14.076l14.068-52.516l19.188,19.185 c0.011,0.011,0.021,0.024,0.032,0.035c0.011,0.011,0.024,0.021,0.035,0.032L280.043,366.156z M76.529,75.407v42.253H34.277 L76.529,75.407z M326.426,450.791L326.426,450.791H20.078V137.738h66.49c5.544,0,10.039-4.496,10.039-10.039v-66.49h229.818 v142.906l-97.118,97.109l-0.001,0.001c-0.286,0.286-0.545,0.588-0.789,0.898c-0.063,0.08-0.121,0.165-0.182,0.247 c-0.186,0.251-0.359,0.508-0.518,0.772c-0.051,0.085-0.103,0.171-0.153,0.258c-0.187,0.331-0.357,0.669-0.504,1.015 c-0.008,0.019-0.018,0.037-0.026,0.057c-0.16,0.383-0.29,0.775-0.4,1.172c-0.007,0.027-0.019,0.051-0.026,0.078l-1.326,4.95 H93.124c-5.544,0-10.039,4.496-10.039,10.039c0,5.544,4.496,10.039,10.039,10.039h126.879l-14.372,53.64H93.124 c-5.544,0-10.039,4.496-10.039,10.039c0,5.544,4.496,10.039,10.039,10.039h120.21c0.001,0,0.003,0,0.004,0 c0.404,0,0.8-0.031,1.192-0.077c0.103-0.012,0.206-0.031,0.309-0.047c0.313-0.047,0.621-0.108,0.925-0.184 c0.056-0.014,0.113-0.019,0.169-0.033l86.106-23.079c0.029-0.008,0.055-0.021,0.083-0.028c0.393-0.108,0.782-0.238,1.162-0.396 c0.026-0.011,0.051-0.025,0.078-0.036c0.339-0.144,0.67-0.31,0.994-0.493c0.09-0.051,0.179-0.104,0.268-0.158 c0.261-0.158,0.515-0.329,0.764-0.513c0.084-0.062,0.17-0.12,0.252-0.186c0.31-0.244,0.612-0.503,0.898-0.789l19.888-19.887 V450.791z M329.379,327.216c-0.008,0.008-0.016,0.016-0.023,0.023l-29.916,29.915l-17.322-17.319l188.32-188.322l17.325,17.325 L329.379,327.216z" style="fill: rgb(86, 78, 193);"/>
    </g>
  </g>
  <g>
    <g>
      <path d="M231.303,163.248H93.124c-5.544,0-10.039,4.496-10.039,10.039c0,5.544,4.495,10.039,10.039,10.039h138.179 c5.544,0,10.039-4.496,10.039-10.039C241.342,167.743,236.846,163.248,231.303,163.248z" style="fill: rgb(86, 78, 193);"/>
    </g>
  </g>
  <g>
    <g>
      <path d="M266.722,236.956H93.124c-5.544,0-10.039,4.496-10.039,10.039c0,5.544,4.495,10.039,10.039,10.039h173.598 c5.544,0,10.039-4.496,10.039-10.039C276.761,241.451,272.266,236.956,266.722,236.956z" style="fill: rgb(86, 78, 193);"/>
    </g>
  </g>
  <g>
    <g>
      <path d="M266.722,163.248c-12.919,0-12.94,20.078,0,20.078C279.641,183.326,279.662,163.248,266.722,163.248z" style="fill: rgb(86, 78, 193);"/>
    </g>
  </g>
</svg>