<svg xmlns="http://www.w3.org/2000/svg" width="22" height="22.001" viewBox="0 0 22 22.001">
    <path data-name="Union 6" d="M8.655 21.744a.77.77 0 0 1-.6-.682l-.213-1.791a1.788 1.788 0 0 1-.426-.171l-1.45 1.109a.835.835 0 0 1-.938.043A9.149 9.149 0 0 1 3.24 18.76a9.125 9.125 0 0 1-1.492-1.791.836.836 0 0 1 .042-.938l1.11-1.45a1.519 1.519 0 0 1-.17-.384l-1.792-.255a.77.77 0 0 1-.682-.6A9.791 9.791 0 0 1 0 11a9.793 9.793 0 0 1 .256-2.345.77.77 0 0 1 .682-.6l1.791-.213a1.788 1.788 0 0 1 .17-.426L1.791 5.969a.836.836 0 0 1-.042-.938A9.125 9.125 0 0 1 3.24 3.24a9.151 9.151 0 0 1 1.791-1.492.835.835 0 0 1 .938.043L7.418 2.9a1.512 1.512 0 0 1 .382-.171L8.058.938a.77.77 0 0 1 .6-.682A9.8 9.8 0 0 1 11 0a9.789 9.789 0 0 1 2.345.256.77.77 0 0 1 .6.682l.255 1.791a1.512 1.512 0 0 1 .384.171l1.449-1.109a.835.835 0 0 1 .938-.043A9.127 9.127 0 0 1 18.76 3.24a9.147 9.147 0 0 1 1.492 1.791.836.836 0 0 1-.042.938l-1.11 1.45a1.5 1.5 0 0 1 .17.384l1.791.256a.771.771 0 0 1 .682.6A9.793 9.793 0 0 1 22 11a9.791 9.791 0 0 1-.256 2.345.771.771 0 0 1-.682.6l-1.791.256a1.5 1.5 0 0 1-.17.384l1.109 1.45a.836.836 0 0 1 .042.938 9.148 9.148 0 0 1-1.492 1.787 9.126 9.126 0 0 1-1.791 1.492.835.835 0 0 1-.938-.043L14.582 19.1a1.52 1.52 0 0 1-.384.171l-.256 1.791a.77.77 0 0 1-.6.682A9.789 9.789 0 0 1 11 22a9.8 9.8 0 0 1-2.345-.256zM7.674 17.4a7.19 7.19 0 0 0 1.151.469.836.836 0 0 1 .554.682l.213 1.705a11.659 11.659 0 0 0 2.814 0l.213-1.705a.836.836 0 0 1 .554-.682 5.445 5.445 0 0 0 1.151-.469.951.951 0 0 1 .9.085l1.364 1.066c.256-.213.6-.512 1.023-.938a13.972 13.972 0 0 0 .938-1.066l-1.069-1.326a.952.952 0 0 1-.085-.9 7.2 7.2 0 0 0 .469-1.151.836.836 0 0 1 .682-.554l1.706-.213a11.693 11.693 0 0 0 0-2.814l-1.706-.209a.78.78 0 0 1-.64-.554 5.585 5.585 0 0 0-.506-1.152.869.869 0 0 1 .085-.853l1.066-1.364a13.982 13.982 0 0 0-.938-1.066 12.5 12.5 0 0 0-1.023-.9l-1.369 1.028a.951.951 0 0 1-.9.085 7.178 7.178 0 0 0-1.151-.469.836.836 0 0 1-.554-.682l-.213-1.705a11.643 11.643 0 0 0-2.814 0L9.38 3.453a.837.837 0 0 1-.554.682 4.646 4.646 0 0 0-1.152.465.869.869 0 0 1-.853-.085L5.458 3.5a11.8 11.8 0 0 0-1.066.9 11.8 11.8 0 0 0-.9 1.066L4.52 6.822a.869.869 0 0 1 .085.853c-.128.256-.256.554-.256.554 0 .043-.128.3-.213.6a.836.836 0 0 1-.682.554l-1.706.213a11.626 11.626 0 0 0 0 2.814l1.706.213a.836.836 0 0 1 .682.554 4.663 4.663 0 0 0 .464 1.149.952.952 0 0 1-.085.9L3.5 16.585a12.5 12.5 0 0 0 .9 1.023 13.866 13.866 0 0 0 1.066.938L6.83 17.48a.9.9 0 0 1 .5-.16.885.885 0 0 1 .344.08zM5.756 11A5.244 5.244 0 1 1 11 16.244 5.24 5.24 0 0 1 5.756 11zm1.663 0A3.582 3.582 0 1 0 11 7.419 3.549 3.549 0 0 0 7.418 11z" style="fill: #564ec1" />
</svg>