<svg xmlns="http://www.w3.org/2000/svg" width="24" height="14.865" viewBox="0 0 24 14.865">
    <path data-name="Union 3" d="M.011 14.865a7.563 7.563 0 0 1 4.635-7.533l3.014 4.059 3.014-4.059a7.726 7.726 0 0 1 3.469 2.879A6.6 6.6 0 0 1 15.97 9.04l2.215 2.983L20.4 9.04a5.6 5.6 0 0 1 3.59 5.825zM14.529 10.9a7.048 7.048 0 0 1 .779 3.233h7.9a4.766 4.766 0 0 0-2.566-4.136L18.185 13.3l-2.461-3.31a4.974 4.974 0 0 0-1.195.91zM.782 14.129h13.751a6.547 6.547 0 0 0-3.608-5.843l-3.265 4.39-3.26-4.39a6.546 6.546 0 0 0-3.618 5.843zm14.31-8.181a3.1 3.1 0 0 1 6.188 0 3.1 3.1 0 0 1-6.188 0zm.774 0a2.322 2.322 0 0 0 4.64 0 2.322 2.322 0 0 0-4.64 0zM3.791 3.718A3.8 3.8 0 0 1 7.66 0a3.8 3.8 0 0 1 3.869 3.718A3.8 3.8 0 0 1 7.66 7.437a3.8 3.8 0 0 1-3.869-3.719zm.774 0A3.041 3.041 0 0 0 7.66 6.692a3.041 3.041 0 0 0 3.095-2.974A3.041 3.041 0 0 0 7.66.745a3.038 3.038 0 0 0-3.095 2.973z" style="fill: #564ec1" stroke="#564ec1" stroke-width="1" />
</svg>